<!DOCTYPE svg PUBLIC "-//W3C//DTD SVG 20010904//EN" "http://www.w3.org/TR/2001/REC-SVG-20010904/DTD/svg10.dtd">
<svg version="1.0" xmlns="http://www.w3.org/2000/svg" width="400px" height="400px" viewBox="0 0 4000 4000" preserveAspectRatio="xMidYMid meet">
<g id="layer101" fill="#d92228" stroke="none">
 <path d="M465 3604 c-6 -10 -9 -221 -7 -587 l2 -572 43 -23 c145 -81 480 -252 485 -248 4 2 6 329 4 725 l-2 721 -258 0 c-223 0 -258 -2 -267 -16z"/>
 <path d="M2628 2734 c-3 -780 -1 -888 12 -896 8 -5 128 -76 265 -157 138 -82 253 -147 257 -144 12 7 10 2041 -2 2063 -10 19 -23 20 -270 20 l-260 0 -2 -886z"/>
 <path d="M1197 3602 c-16 -3 -17 -60 -17 -770 l0 -767 165 -87 c90 -49 168 -88 172 -88 5 0 52 47 106 104 l97 105 -2 751 -3 752 -251 2 c-138 0 -258 0 -267 -2z"/>
 <path d="M1910 3602 c-7 -3 -10 -232 -10 -663 l0 -659 68 -43 c37 -24 94 -58 127 -77 33 -19 122 -71 198 -117 88 -52 140 -78 143 -70 2 7 3 376 2 820 l-3 808 -258 2 c-141 1 -262 1 -267 -1z"/>
 <path d="M285 2203 c-27 -53 -83 -158 -122 -232 -40 -75 -73 -137 -73 -138 0 -2 433 -232 1045 -554 61 -32 153 -81 205 -108 52 -28 146 -77 208 -108 l114 -58 177 184 c171 178 178 183 202 171 29 -16 138 -80 712 -420 86 -51 157 -96 157 -100 0 -3 -15 -31 -33 -61 -19 -30 -69 -112 -112 -184 -43 -71 -84 -137 -92 -146 -7 -8 -13 -22 -13 -30 0 -12 63 -7 373 33 204 25 406 49 447 53 41 3 116 12 165 20 112 17 226 30 242 27 6 -2 14 1 17 6 3 5 -31 103 -75 218 -44 115 -133 351 -199 524 -160 425 -162 430 -169 430 -3 0 -62 -92 -130 -205 -68 -113 -128 -208 -133 -211 -9 -6 -39 11 -283 156 -77 46 -237 140 -355 210 -118 70 -309 182 -423 250 l-209 123 -187 -193 -186 -194 -105 56 c-188 100 -802 423 -935 493 -72 37 -134 71 -139 76 -25 23 -43 4 -91 -88z"/>
 </g>

</svg>